# xmcd
#
# Track frame offsets:
#	150
#	16011
#	28373
#	43817
#	57246
#	70990
#	84949
#	96736
#	110780
#	125641
#	140953
#	155887
#	173636
#	185838
#	201110
#	215152
#	227774
#	239149
#
# Disc length: 3358 seconds
#
# Revision: 0
# Processed by: cddbd v1.5.2PL0 Copyright (c) Steve Scherf et al.
# Submitted via: EasyCDDAExtractor 16.0.6.1
#
DISCID=220d1c12
DTITLE=Συλλογικός δίσκος - Τραγούδια 45 στροφές-Μητσάκης Γιώργος 2
DYEAR=1998
DGENRE=Λαϊκή
TTITLE0=Διονυσίου Στράτος-Μητσάκης Γιώργος - Όταν μιλάει το κρασί [1961, μουσ.
TTITLE0=στ. Γ. Μητσάκης]
TTITLE1=Γκρέϋ Καίτη - Πικρά θα κλάψεις κάποτε [1966, μουσ. στ. Γ. Μητσάκης]
TTITLE2=Ζαφειρόπουλος Βασίλης-Μητσάκης Γιώργος - Πάρε με κύμα, πάρε με [1961, 
TTITLE2=μουσ. στ. Γ. Μητσάκης]
TTITLE3=Λάουρα-Τρίο Μορένο - Να πας, να πας [1961, μουσ. στ. Γ. Μητσάκης]
TTITLE4=Καζαντζίδης Στέλιος-Μαρινέλλα - Το ρομάντζο μας [1960, μουσ. στ. Γ. Μη
TTITLE4=τσάκης]
TTITLE5=Τζανής Δημήτρης-Διαμάντη Λίτσα - Πέφτουν τα φύλλα [1969, μουσ. στ. Γ. 
TTITLE5=Μητσάκης]
TTITLE6=Τρώνη Νάγια - Περίμενέ με [1970, μουσ. στ. Γ. Μητσάκης]
TTITLE7=Τσαουσάκης Πρόδρομος-Διαμάντη Λίτσα - Του καμπούρη η καρδιά [1968, μου
TTITLE7=σ. στ. Γ. Μητσάκης]
TTITLE8=Γιαννακοπούλου Ντόρα - Τα σκαλοπάτια της ζωής [1962, μουσ. στ. Γ. Μητσ
TTITLE8=άκης]
TTITLE9=Τρίο Μπελκάντο - Σαν δυό πουλάκια [1961, μουσ. στ. Γ. Μητσάκης]
TTITLE10=Γκρέϋ Καίτη-Ρουμελιώτης Δημήτρης - Γιώργο μου ποιά σε χαίρεται [1960,
TTITLE10=μουσ. στ. Γ. Μητσάκης]
TTITLE11=Λάουρα-Τρίο Μορένο - Τα παιδιά του λιμανιού [1961, μουσ. στ. Γ. Μητσά
TTITLE11=κης]
TTITLE12=Τζανής Δημήτρης-Διαμάντη Λίτσα - Στα Τρίκαλα [1968, μουσ. στ. Γ. Μητσ
TTITLE12=άκης]
TTITLE13=Πέρρα Άντζελα-Ρεπάνης Αντώνης - Ζηλιάρη άνθρωπέ μου [1961, μουσ. στ. 
TTITLE13=Γ. Μητσάκης]
TTITLE14=Γεωργιάδης Δώρος-Παπαδοπούλου Πίτσα - Πού 'ναι η αγάπη σου παλληκάρι 
TTITLE14=[1970, μουσ. στ. Γ. Μητσάκης]
TTITLE15=Γιαννακοπούλου Ντόρα - Μ' αρνήθηκε η αγάπη μου [1962, Γ.Μητσάκης-Μ.Μά
TTITLE15=τσας/Κ.Ασημακόπουλος]
TTITLE16=Πολυκανδριώτης Σπύρος-χορωδία - Ο φοιτητής [1971, μουσ. στ. Γ. Μητσάκ
TTITLE16=ης]
TTITLE17=Μπιθικώτσης Γρηγόρης - Ο πατέρας [1963, μουσ. στ. Γ. Μητσάκης]
EXTD=
EXTT0=
EXTT1=
EXTT2=
EXTT3=
EXTT4=
EXTT5=
EXTT6=
EXTT7=
EXTT8=
EXTT9=
EXTT10=
EXTT11=
EXTT12=
EXTT13=
EXTT14=
EXTT15=
EXTT16=
EXTT17=
PLAYORDER=
